<svg width="51" height="50" viewBox="0 0 51 50" fill="none" xmlns="http://www.w3.org/2000/svg">
<g id="instagram">
<circle id="Ellipse 2" cx="25.3065" cy="25" r="25" fill="#F8FAFA"/>
<path id="Icon" d="M20.7685 14.7896C17.6362 14.7896 15.0961 17.3297 15.0961 20.462V29.538C15.0961 32.6703 17.6362 35.2104 20.7685 35.2104H29.8445C32.9768 35.2104 35.517 32.6703 35.517 29.538V20.462C35.517 17.3297 32.9768 14.7896 29.8445 14.7896H20.7685ZM32.1135 17.0585C32.7397 17.0585 33.248 17.5668 33.248 18.193C33.248 18.8193 32.7397 19.3275 32.1135 19.3275C31.4872 19.3275 30.979 18.8193 30.979 18.193C30.979 17.5668 31.4872 17.0585 32.1135 17.0585ZM25.3065 19.3275C28.4389 19.3275 30.979 21.8677 30.979 25C30.979 28.1323 28.4389 30.6725 25.3065 30.6725C22.1742 30.6725 19.634 28.1323 19.634 25C19.634 21.8677 22.1742 19.3275 25.3065 19.3275ZM25.3065 21.5965C24.4039 21.5965 23.5382 21.9551 22.8999 22.5934C22.2616 23.2317 21.903 24.0973 21.903 25C21.903 25.9027 22.2616 26.7683 22.8999 27.4066C23.5382 28.0449 24.4039 28.4035 25.3065 28.4035C26.2092 28.4035 27.0749 28.0449 27.7131 27.4066C28.3514 26.7683 28.71 25.9027 28.71 25C28.71 24.0973 28.3514 23.2317 27.7131 22.5934C27.0749 21.9551 26.2092 21.5965 25.3065 21.5965Z" fill="#FF5017"/>
</g>
</svg>
