<svg width="51" height="50" viewBox="0 0 51 50" fill="none" xmlns="http://www.w3.org/2000/svg">
<g id="Linkdin">
<circle id="Ellipse 4" cx="25.3064" cy="25" r="25" fill="#F8FAFA"/>
<path id="Icon" d="M35.9927 27.3063V35.1996H31.4108V27.8353C31.4108 25.9862 30.7493 24.7234 29.0903 24.7234C27.8243 24.7234 27.0722 25.5736 26.7401 26.3968C26.6195 26.691 26.5884 27.0995 26.5884 27.5121V35.1993H22.0062C22.0062 35.1993 22.0677 22.7265 22.0062 21.4354H26.5887V23.3859C26.5795 23.4013 26.5665 23.4163 26.5583 23.431H26.5887V23.3859C27.1977 22.4501 28.2836 21.1122 30.7182 21.1122C33.7327 21.1122 35.9927 23.0794 35.9927 27.3063ZM17.2128 14.8008C15.6454 14.8008 14.62 15.8284 14.62 17.1785C14.62 18.5 15.6157 19.5573 17.1527 19.5573H17.1824C18.7805 19.5573 19.7742 18.5 19.7742 17.1785C19.7438 15.8284 18.7805 14.8008 17.2128 14.8008ZM14.8923 35.1996H19.4728V21.4354H14.8923V35.1996Z" fill="#FF5017"/>
</g>
</svg>
