<svg width="51" height="50" viewBox="0 0 51 50" fill="none" xmlns="http://www.w3.org/2000/svg">
<g id="Twitter">
<circle id="Ellipse 3" cx="25.3064" cy="25" r="25" fill="#F8FAFA"/>
<path id="Icon" d="M37.8717 17.2157C36.9474 17.6251 35.953 17.902 34.9103 18.0257C35.975 17.3885 36.792 16.3804 37.1777 15.1772C36.1814 15.7674 35.0775 16.1957 33.9036 16.4265C32.9631 15.426 31.6231 14.8008 30.1393 14.8008C27.2924 14.8008 24.9834 17.107 24.9834 19.9505C24.9834 20.3542 25.0292 20.747 25.1176 21.1242C20.8327 20.9095 17.0333 18.8594 14.4902 15.7429C14.0465 16.5033 13.7919 17.3885 13.7919 18.3321C13.7919 20.1184 14.7028 21.6953 16.0855 22.6185C15.2408 22.592 14.4452 22.3604 13.7504 21.9737C13.75 21.9956 13.75 22.0175 13.75 22.039C13.75 24.5342 15.528 26.6153 17.8862 27.0881C17.454 27.2064 16.9976 27.269 16.5281 27.269C16.1951 27.269 15.8725 27.2371 15.558 27.1772C16.214 29.2227 18.1177 30.7116 20.3743 30.7535C18.6094 32.1349 16.3866 32.9579 13.9704 32.9579C13.5551 32.9579 13.1437 32.9337 12.7411 32.8857C15.0216 34.3474 17.7324 35.1996 20.6439 35.1996C30.1274 35.1996 35.3136 27.3527 35.3136 20.547C35.3136 20.3238 35.3086 20.1015 35.2986 19.881C36.3068 19.1552 37.1808 18.2484 37.8717 17.2157Z" fill="#FF5017"/>
</g>
</svg>
