<svg width="51" height="50" viewBox="0 0 51 50" fill="none" xmlns="http://www.w3.org/2000/svg">
<g id="Youtube">
<circle id="Ellipse 5" cx="25.3065" cy="25" r="25" fill="#F8FAFA"/>
<path id="Icon" d="M25.31 35.1894C27.9641 35.1894 30.6181 35.1615 33.2722 35.1987C35.9434 35.2359 37.7952 33.246 38.2561 31.1074C38.3585 30.6518 38.4097 30.1683 38.4097 29.6941C38.4268 26.5698 38.4182 23.4455 38.4182 20.3213C38.4097 17.1691 36.2506 14.8073 33.3576 14.8073C27.9811 14.798 22.6047 14.798 17.2368 14.8073C14.3609 14.8073 12.2018 17.1784 12.1932 20.3027C12.1932 23.4362 12.1932 26.5698 12.1932 29.7034C12.2018 32.7532 14.267 35.115 17.0576 35.1708C19.8056 35.2266 22.562 35.1801 25.31 35.1894ZM21.8879 29.3593C21.8879 26.4117 21.8879 23.5292 21.8879 20.6002C24.1835 22.0694 26.445 23.5106 28.7492 24.9798C26.4365 26.4582 24.1835 27.8902 21.8879 29.3593Z" fill="#FF5017"/>
</g>
</svg>
